<mxfile host="app.diagrams.net" agent="Mozilla/5.0 (Windows NT 10.0; Win64; x64) AppleWebKit/537.36 (KHTML, like Gecko) Chrome/140.0.0.0 Safari/537.36" version="28.2.5">
  <diagram name="หน้า-1" id="1T5dIC3ivWv6FaNOQgws">
    <mxGraphModel dx="1491" dy="691" grid="1" gridSize="10" guides="1" tooltips="1" connect="1" arrows="1" fold="1" page="1" pageScale="1" pageWidth="827" pageHeight="1169" math="0" shadow="0">
      <root>
        <mxCell id="0" />
        <mxCell id="1" parent="0" />
        <mxCell id="bdFwNg8ENC1twVII3RLL-1" style="edgeStyle=orthogonalEdgeStyle;rounded=0;orthogonalLoop=1;jettySize=auto;html=1;entryX=0.5;entryY=0;entryDx=0;entryDy=0;" parent="1" source="bdFwNg8ENC1twVII3RLL-2" target="bdFwNg8ENC1twVII3RLL-4" edge="1">
          <mxGeometry relative="1" as="geometry" />
        </mxCell>
        <mxCell id="bdFwNg8ENC1twVII3RLL-2" value="Start" style="ellipse;whiteSpace=wrap;html=1;" parent="1" vertex="1">
          <mxGeometry x="490" y="300" width="120" height="50" as="geometry" />
        </mxCell>
        <mxCell id="bdFwNg8ENC1twVII3RLL-3" style="edgeStyle=orthogonalEdgeStyle;rounded=0;orthogonalLoop=1;jettySize=auto;html=1;entryX=0.5;entryY=0;entryDx=0;entryDy=0;" parent="1" source="bdFwNg8ENC1twVII3RLL-4" target="bdFwNg8ENC1twVII3RLL-6" edge="1">
          <mxGeometry relative="1" as="geometry" />
        </mxCell>
        <mxCell id="bdFwNg8ENC1twVII3RLL-4" value="ตั้งค่าเริ่มต้น&#xa;N = -1" style="whiteSpace=wrap;html=1;" parent="1" vertex="1">
          <mxGeometry x="470" y="390" width="160" height="60" as="geometry" />
        </mxCell>
        <mxCell id="bdFwNg8ENC1twVII3RLL-5" style="edgeStyle=orthogonalEdgeStyle;rounded=0;orthogonalLoop=1;jettySize=auto;html=1;entryX=0.5;entryY=0;entryDx=0;entryDy=0;" parent="1" source="bdFwNg8ENC1twVII3RLL-6" target="bdFwNg8ENC1twVII3RLL-8" edge="1">
          <mxGeometry relative="1" as="geometry" />
        </mxCell>
        <mxCell id="bdFwNg8ENC1twVII3RLL-6" value="แสดง: Enter value:" style="shape=parallelogram;perimeter=parallelogramPerimeter;whiteSpace=wrap;html=1;" parent="1" vertex="1">
          <mxGeometry x="460" y="500" width="180" height="60" as="geometry" />
        </mxCell>
        <mxCell id="bdFwNg8ENC1twVII3RLL-7" style="edgeStyle=orthogonalEdgeStyle;rounded=0;orthogonalLoop=1;jettySize=auto;html=1;entryX=0.5;entryY=0;entryDx=0;entryDy=0;" parent="1" source="bdFwNg8ENC1twVII3RLL-8" target="bdFwNg8ENC1twVII3RLL-10" edge="1">
          <mxGeometry relative="1" as="geometry" />
        </mxCell>
        <mxCell id="bdFwNg8ENC1twVII3RLL-8" value="รับค่า N (จำนวนเต็ม)" style="shape=parallelogram;perimeter=parallelogramPerimeter;whiteSpace=wrap;html=1;" parent="1" vertex="1">
          <mxGeometry x="460" y="600" width="180" height="60" as="geometry" />
        </mxCell>
        <mxCell id="bdFwNg8ENC1twVII3RLL-9" style="edgeStyle=orthogonalEdgeStyle;rounded=0;orthogonalLoop=1;jettySize=auto;html=1;entryX=0.5;entryY=0;entryDx=0;entryDy=0;" parent="1" source="bdFwNg8ENC1twVII3RLL-10" target="bdFwNg8ENC1twVII3RLL-15" edge="1">
          <mxGeometry relative="1" as="geometry" />
        </mxCell>
        <mxCell id="bdFwNg8ENC1twVII3RLL-10" value="N &lt; 0 ?" style="rhombus;whiteSpace=wrap;html=1;" parent="1" vertex="1">
          <mxGeometry x="460" y="730" width="180" height="80" as="geometry" />
        </mxCell>
        <mxCell id="bdFwNg8ENC1twVII3RLL-11" style="edgeStyle=orthogonalEdgeStyle;rounded=0;orthogonalLoop=1;jettySize=auto;html=1;entryX=1;entryY=0.5;entryDx=0;entryDy=0;exitX=0.5;exitY=1;exitDx=0;exitDy=0;" parent="1" source="bdFwNg8ENC1twVII3RLL-12" target="bdFwNg8ENC1twVII3RLL-39" edge="1">
          <mxGeometry relative="1" as="geometry">
            <Array as="points">
              <mxPoint x="890" y="960" />
              <mxPoint x="1000" y="960" />
              <mxPoint x="1000" y="1700" />
            </Array>
          </mxGeometry>
        </mxCell>
        <mxCell id="bdFwNg8ENC1twVII3RLL-12" value="แสดง: Please enter a number" style="shape=parallelogram;perimeter=parallelogramPerimeter;whiteSpace=wrap;html=1;" parent="1" vertex="1">
          <mxGeometry x="770" y="850" width="240" height="60" as="geometry" />
        </mxCell>
        <mxCell id="bdFwNg8ENC1twVII3RLL-13" value="Stop" style="ellipse;whiteSpace=wrap;html=1;" parent="1" vertex="1">
          <mxGeometry x="490" y="1780" width="120" height="50" as="geometry" />
        </mxCell>
        <mxCell id="bdFwNg8ENC1twVII3RLL-14" style="edgeStyle=orthogonalEdgeStyle;rounded=0;orthogonalLoop=1;jettySize=auto;html=1;entryX=0.5;entryY=0;entryDx=0;entryDy=0;" parent="1" source="bdFwNg8ENC1twVII3RLL-15" target="bdFwNg8ENC1twVII3RLL-40" edge="1">
          <mxGeometry relative="1" as="geometry" />
        </mxCell>
        <mxCell id="bdFwNg8ENC1twVII3RLL-15" value="แสดง: Series: N" style="shape=parallelogram;perimeter=parallelogramPerimeter;whiteSpace=wrap;html=1;" parent="1" vertex="1">
          <mxGeometry x="460" y="880" width="180" height="60" as="geometry" />
        </mxCell>
        <mxCell id="bdFwNg8ENC1twVII3RLL-16" style="edgeStyle=orthogonalEdgeStyle;rounded=0;orthogonalLoop=1;jettySize=auto;html=1;entryX=0.5;entryY=0;entryDx=0;entryDy=0;" parent="1" source="bdFwNg8ENC1twVII3RLL-18" target="bdFwNg8ENC1twVII3RLL-20" edge="1">
          <mxGeometry relative="1" as="geometry" />
        </mxCell>
        <mxCell id="bdFwNg8ENC1twVII3RLL-17" style="edgeStyle=orthogonalEdgeStyle;rounded=0;orthogonalLoop=1;jettySize=auto;html=1;entryX=0.5;entryY=0;entryDx=0;entryDy=0;" parent="1" source="bdFwNg8ENC1twVII3RLL-18" target="bdFwNg8ENC1twVII3RLL-29" edge="1">
          <mxGeometry relative="1" as="geometry" />
        </mxCell>
        <mxCell id="bdFwNg8ENC1twVII3RLL-18" value="N % 2 == 1 ?" style="rhombus;whiteSpace=wrap;html=1;" parent="1" vertex="1">
          <mxGeometry x="460" y="1020" width="180" height="80" as="geometry" />
        </mxCell>
        <mxCell id="bdFwNg8ENC1twVII3RLL-19" style="edgeStyle=orthogonalEdgeStyle;rounded=0;orthogonalLoop=1;jettySize=auto;html=1;entryX=0.5;entryY=0;entryDx=0;entryDy=0;" parent="1" source="bdFwNg8ENC1twVII3RLL-20" target="bdFwNg8ENC1twVII3RLL-23" edge="1">
          <mxGeometry relative="1" as="geometry" />
        </mxCell>
        <mxCell id="bdFwNg8ENC1twVII3RLL-20" value="ตั้ง i = 1" style="whiteSpace=wrap;html=1;" parent="1" vertex="1">
          <mxGeometry x="480" y="1160" width="140" height="50" as="geometry" />
        </mxCell>
        <mxCell id="bdFwNg8ENC1twVII3RLL-21" style="edgeStyle=orthogonalEdgeStyle;rounded=0;orthogonalLoop=1;jettySize=auto;html=1;entryX=0.5;entryY=0;entryDx=0;entryDy=0;" parent="1" source="bdFwNg8ENC1twVII3RLL-23" target="bdFwNg8ENC1twVII3RLL-25" edge="1">
          <mxGeometry relative="1" as="geometry" />
        </mxCell>
        <mxCell id="bdFwNg8ENC1twVII3RLL-22" style="edgeStyle=orthogonalEdgeStyle;rounded=0;orthogonalLoop=1;jettySize=auto;html=1;entryX=0;entryY=0.5;entryDx=0;entryDy=0;" parent="1" source="bdFwNg8ENC1twVII3RLL-23" target="bdFwNg8ENC1twVII3RLL-40" edge="1">
          <mxGeometry relative="1" as="geometry">
            <mxPoint x="390.0000000000582" y="980" as="targetPoint" />
            <Array as="points">
              <mxPoint x="420" y="1320" />
              <mxPoint x="420" y="990" />
            </Array>
          </mxGeometry>
        </mxCell>
        <mxCell id="bdFwNg8ENC1twVII3RLL-23" value="i ≤ N ?" style="rhombus;whiteSpace=wrap;html=1;" parent="1" vertex="1">
          <mxGeometry x="470" y="1280" width="160" height="80" as="geometry" />
        </mxCell>
        <mxCell id="bdFwNg8ENC1twVII3RLL-24" style="edgeStyle=orthogonalEdgeStyle;rounded=0;orthogonalLoop=1;jettySize=auto;html=1;entryX=0.5;entryY=0;entryDx=0;entryDy=0;" parent="1" source="bdFwNg8ENC1twVII3RLL-25" target="bdFwNg8ENC1twVII3RLL-27" edge="1">
          <mxGeometry relative="1" as="geometry" />
        </mxCell>
        <mxCell id="bdFwNg8ENC1twVII3RLL-25" value="พิมพ์ i" style="shape=parallelogram;perimeter=parallelogramPerimeter;whiteSpace=wrap;html=1;" parent="1" vertex="1">
          <mxGeometry x="460" y="1420" width="180" height="60" as="geometry" />
        </mxCell>
        <mxCell id="bdFwNg8ENC1twVII3RLL-26" style="edgeStyle=orthogonalEdgeStyle;rounded=0;orthogonalLoop=1;jettySize=auto;html=1;entryX=0.5;entryY=0;entryDx=0;entryDy=0;" parent="1" source="bdFwNg8ENC1twVII3RLL-27" target="bdFwNg8ENC1twVII3RLL-39" edge="1">
          <mxGeometry relative="1" as="geometry" />
        </mxCell>
        <mxCell id="bdFwNg8ENC1twVII3RLL-27" value="i = i + 2" style="whiteSpace=wrap;html=1;" parent="1" vertex="1">
          <mxGeometry x="470" y="1560" width="160" height="50" as="geometry" />
        </mxCell>
        <mxCell id="bdFwNg8ENC1twVII3RLL-28" style="edgeStyle=orthogonalEdgeStyle;rounded=0;orthogonalLoop=1;jettySize=auto;html=1;entryX=0.5;entryY=0;entryDx=0;entryDy=0;" parent="1" source="bdFwNg8ENC1twVII3RLL-29" target="bdFwNg8ENC1twVII3RLL-32" edge="1">
          <mxGeometry relative="1" as="geometry" />
        </mxCell>
        <mxCell id="bdFwNg8ENC1twVII3RLL-29" value="ตั้ง i = N" style="whiteSpace=wrap;html=1;" parent="1" vertex="1">
          <mxGeometry x="740" y="1160" width="140" height="50" as="geometry" />
        </mxCell>
        <mxCell id="bdFwNg8ENC1twVII3RLL-30" style="edgeStyle=orthogonalEdgeStyle;rounded=0;orthogonalLoop=1;jettySize=auto;html=1;entryX=0.5;entryY=0;entryDx=0;entryDy=0;" parent="1" source="bdFwNg8ENC1twVII3RLL-32" target="bdFwNg8ENC1twVII3RLL-34" edge="1">
          <mxGeometry relative="1" as="geometry" />
        </mxCell>
        <mxCell id="bdFwNg8ENC1twVII3RLL-31" style="edgeStyle=orthogonalEdgeStyle;rounded=0;orthogonalLoop=1;jettySize=auto;html=1;entryX=1;entryY=0.5;entryDx=0;entryDy=0;" parent="1" source="bdFwNg8ENC1twVII3RLL-32" target="bdFwNg8ENC1twVII3RLL-40" edge="1">
          <mxGeometry relative="1" as="geometry">
            <Array as="points">
              <mxPoint x="930" y="1320" />
              <mxPoint x="930" y="990" />
            </Array>
          </mxGeometry>
        </mxCell>
        <mxCell id="bdFwNg8ENC1twVII3RLL-32" value="i ≥ 0 ?" style="rhombus;whiteSpace=wrap;html=1;" parent="1" vertex="1">
          <mxGeometry x="730" y="1280" width="160" height="80" as="geometry" />
        </mxCell>
        <mxCell id="bdFwNg8ENC1twVII3RLL-33" style="edgeStyle=orthogonalEdgeStyle;rounded=0;orthogonalLoop=1;jettySize=auto;html=1;entryX=0.5;entryY=0;entryDx=0;entryDy=0;" parent="1" source="bdFwNg8ENC1twVII3RLL-34" target="bdFwNg8ENC1twVII3RLL-36" edge="1">
          <mxGeometry relative="1" as="geometry" />
        </mxCell>
        <mxCell id="bdFwNg8ENC1twVII3RLL-34" value="พิมพ์ i" style="shape=parallelogram;perimeter=parallelogramPerimeter;whiteSpace=wrap;html=1;" parent="1" vertex="1">
          <mxGeometry x="720" y="1420" width="180" height="60" as="geometry" />
        </mxCell>
        <mxCell id="bdFwNg8ENC1twVII3RLL-35" style="edgeStyle=orthogonalEdgeStyle;rounded=0;orthogonalLoop=1;jettySize=auto;html=1;entryX=1;entryY=0.5;entryDx=0;entryDy=0;exitX=0.5;exitY=1;exitDx=0;exitDy=0;" parent="1" source="bdFwNg8ENC1twVII3RLL-36" target="bdFwNg8ENC1twVII3RLL-39" edge="1">
          <mxGeometry relative="1" as="geometry" />
        </mxCell>
        <mxCell id="bdFwNg8ENC1twVII3RLL-36" value="i = i - 2" style="whiteSpace=wrap;html=1;" parent="1" vertex="1">
          <mxGeometry x="730" y="1560" width="160" height="50" as="geometry" />
        </mxCell>
        <mxCell id="bdFwNg8ENC1twVII3RLL-37" style="edgeStyle=orthogonalEdgeStyle;rounded=0;orthogonalLoop=1;jettySize=auto;html=1;entryX=0.55;entryY=0.042;entryDx=0;entryDy=0;entryPerimeter=0;" parent="1" source="bdFwNg8ENC1twVII3RLL-10" target="bdFwNg8ENC1twVII3RLL-12" edge="1">
          <mxGeometry relative="1" as="geometry" />
        </mxCell>
        <mxCell id="bdFwNg8ENC1twVII3RLL-38" style="edgeStyle=orthogonalEdgeStyle;rounded=0;orthogonalLoop=1;jettySize=auto;html=1;entryX=0.5;entryY=0;entryDx=0;entryDy=0;" parent="1" source="bdFwNg8ENC1twVII3RLL-39" target="bdFwNg8ENC1twVII3RLL-13" edge="1">
          <mxGeometry relative="1" as="geometry" />
        </mxCell>
        <mxCell id="bdFwNg8ENC1twVII3RLL-39" value="" style="ellipse;whiteSpace=wrap;html=1;aspect=fixed;" parent="1" vertex="1">
          <mxGeometry x="540" y="1690" width="20" height="20" as="geometry" />
        </mxCell>
        <mxCell id="bdFwNg8ENC1twVII3RLL-40" value="" style="ellipse;whiteSpace=wrap;html=1;aspect=fixed;" parent="1" vertex="1">
          <mxGeometry x="540" y="980" width="20" height="20" as="geometry" />
        </mxCell>
        <mxCell id="bdFwNg8ENC1twVII3RLL-41" value="จริง" style="text;html=1;align=center;verticalAlign=middle;resizable=0;points=[];autosize=1;strokeColor=none;fillColor=none;" parent="1" vertex="1">
          <mxGeometry x="560" y="820" width="40" height="30" as="geometry" />
        </mxCell>
        <mxCell id="bdFwNg8ENC1twVII3RLL-42" value="เท็จ" style="text;html=1;align=center;verticalAlign=middle;resizable=0;points=[];autosize=1;strokeColor=none;fillColor=none;" parent="1" vertex="1">
          <mxGeometry x="750" y="730" width="40" height="30" as="geometry" />
        </mxCell>
        <mxCell id="bdFwNg8ENC1twVII3RLL-43" value="จริง" style="text;html=1;align=center;verticalAlign=middle;resizable=0;points=[];autosize=1;strokeColor=none;fillColor=none;" parent="1" vertex="1">
          <mxGeometry x="560" y="1110" width="40" height="30" as="geometry" />
        </mxCell>
        <mxCell id="bdFwNg8ENC1twVII3RLL-44" value="เท็จ" style="text;html=1;align=center;verticalAlign=middle;resizable=0;points=[];autosize=1;strokeColor=none;fillColor=none;" parent="1" vertex="1">
          <mxGeometry x="710" y="1020" width="40" height="30" as="geometry" />
        </mxCell>
        <mxCell id="bdFwNg8ENC1twVII3RLL-45" value="จริง" style="text;html=1;align=center;verticalAlign=middle;resizable=0;points=[];autosize=1;strokeColor=none;fillColor=none;" parent="1" vertex="1">
          <mxGeometry x="560" y="1370" width="40" height="30" as="geometry" />
        </mxCell>
        <mxCell id="bdFwNg8ENC1twVII3RLL-46" value="จริง" style="text;html=1;align=center;verticalAlign=middle;resizable=0;points=[];autosize=1;strokeColor=none;fillColor=none;" parent="1" vertex="1">
          <mxGeometry x="830" y="1380" width="40" height="30" as="geometry" />
        </mxCell>
        <mxCell id="bdFwNg8ENC1twVII3RLL-47" value="เท็จ" style="text;html=1;align=center;verticalAlign=middle;resizable=0;points=[];autosize=1;strokeColor=none;fillColor=none;" parent="1" vertex="1">
          <mxGeometry x="430" y="1280" width="40" height="30" as="geometry" />
        </mxCell>
        <mxCell id="bdFwNg8ENC1twVII3RLL-48" value="เท็จ" style="text;html=1;align=center;verticalAlign=middle;resizable=0;points=[];autosize=1;strokeColor=none;fillColor=none;" parent="1" vertex="1">
          <mxGeometry x="880" y="1280" width="40" height="30" as="geometry" />
        </mxCell>
      </root>
    </mxGraphModel>
  </diagram>
</mxfile>
